<svg width="800" height="400" viewBox="0 0 800 400" xmlns="http://www.w3.org/2000/svg"><mask id="satori_om-id"><rect x="0" y="0" width="800" height="400" fill="#fff"/></mask><rect x="0" y="0" width="800" height="400" fill="#fff"/><mask id="satori_om-id-0"><rect x="40" y="40" width="720" height="46" fill="#fff"/></mask><path fill="black" d="M46.6 76.7L46.6 65.9L65.3 65.9L65.3 76.7L46.6 76.7ZM62.7 74.5L62.7 68.0L49.2 68.0L49.2 74.5L62.7 74.5ZM43.5 52.1L43.5 50.0L56.7 50.0Q56.7 53.7 55.1 56.6Q53.4 59.6 50.3 61.6Q47.2 63.6 43.0 64.8L43.0 64.8L41.9 62.7Q45.7 61.7 48.4 60.0Q51.1 58.3 52.5 56.1L52.5 56.1Q53.7 54.2 53.9 52.1L53.9 52.1L43.5 52.1ZM62.7 64.5L62.7 48.2L65.3 48.2L65.3 64.5L62.7 64.5ZM71.0 66.6L71.0 64.4L97.2 64.4L97.2 66.6L85.4 66.6L85.4 77.1L82.8 77.1L82.8 66.6L71.0 66.6ZM82.8 50.8L82.8 49.2L85.5 49.2L85.5 50.8Q85.5 52.0 86.1 53.1Q86.7 54.2 87.7 55.2Q88.7 56.2 90.0 57.0Q91.3 57.8 92.8 58.4Q94.3 58.9 95.9 59.1L95.9 59.1L94.8 61.3Q93.1 61.0 91.4 60.3Q89.7 59.7 88.2 58.7Q86.7 57.8 85.6 56.5L85.6 56.5Q84.7 55.6 84.2 54.5L84.2 54.5Q83.6 55.6 82.7 56.6L82.7 56.6Q81.6 57.8 80.1 58.8Q78.7 59.7 76.9 60.4Q75.2 61.0 73.4 61.3L73.4 61.3L72.4 59.1Q74.0 58.9 75.5 58.4Q77.0 57.8 78.3 57.0Q79.6 56.3 80.6 55.3Q81.6 54.3 82.2 53.1Q82.8 52.0 82.8 50.8L82.8 50.8ZM100.5 73.5L100.5 71.3L112.2 71.3L112.2 65.9L103.7 65.9L103.7 56.9L120.8 56.9L120.8 52.4L103.7 52.4L103.7 50.3L123.5 50.3L123.5 59.0L106.4 59.0L106.4 63.7L124.1 63.7L124.1 65.9L114.8 65.9L114.8 71.3L126.7 71.3L126.7 73.5L100.5 73.5Z "/><mask id="satori_om-id-1"><rect x="40" y="86" width="720" height="39" fill="#fff"/></mask><path fill="black" d="M46.9 116.0L42.0 116.0L42.0 92.7L57.4 92.7L57.4 96.7L46.9 96.7L46.9 102.3L56.4 102.3L56.4 106.3L46.9 106.3L46.9 116.0ZM65.2 116.0L60.4 116.0L60.4 98.5L65.0 98.5L65.0 101.5L65.2 101.5Q65.7 99.9 66.8 99.1Q68.0 98.2 69.4 98.2L69.4 98.2Q69.8 98.2 70.2 98.3Q70.6 98.3 70.9 98.4L70.9 98.4L70.9 102.7Q70.6 102.6 70 102.5Q69.4 102.5 68.9 102.5L68.9 102.5Q67.8 102.5 67.0 102.9Q66.2 103.4 65.7 104.2Q65.2 105.0 65.2 106.1L65.2 106.1L65.2 116.0ZM80.5 116.3L80.5 116.3Q77.9 116.3 75.9 115.2Q74 114.0 73.0 112.0Q71.9 110.0 71.9 107.3L71.9 107.3Q71.9 104.6 73.0 102.6Q74 100.5 75.9 99.4Q77.9 98.3 80.5 98.3L80.5 98.3Q83.1 98.3 85.1 99.4Q87 100.5 88.0 102.6Q89.1 104.6 89.1 107.3L89.1 107.3Q89.1 110.0 88.0 112.0Q87 114.0 85.1 115.2Q83.1 116.3 80.5 116.3ZM80.5 112.5L80.5 112.5Q81.7 112.5 82.5 111.9Q83.3 111.2 83.8 110.0Q84.2 108.8 84.2 107.3L84.2 107.3Q84.2 105.7 83.8 104.5Q83.3 103.3 82.5 102.7Q81.7 102.0 80.5 102.0L80.5 102.0Q79.3 102.0 78.5 102.7Q77.7 103.3 77.2 104.5Q76.8 105.7 76.8 107.3L76.8 107.3Q76.8 108.8 77.2 110.0Q77.7 111.2 78.5 111.9Q79.3 112.5 80.5 112.5ZM97.1 105.9L97.1 105.9L97.1 116.0L92.3 116.0L92.3 98.5L96.9 98.5L96.9 101.6L97.1 101.6Q97.6 100.1 99.0 99.2Q100.4 98.3 102.3 98.3L102.3 98.3Q104.1 98.3 105.5 99.1Q106.8 99.9 107.6 101.3Q108.3 102.8 108.3 104.8L108.3 104.8L108.3 116.0L103.5 116.0L103.5 105.7Q103.5 104.1 102.7 103.2Q101.9 102.3 100.4 102.3L100.4 102.3Q99.4 102.3 98.7 102.7Q97.9 103.1 97.5 103.9Q97.1 104.7 97.1 105.9ZM110.9 98.5L121.4 98.5L121.4 102.1L110.9 102.1L110.9 98.5ZM113.3 111.2L113.3 94.3L118.1 94.3L118.1 110.6Q118.1 111.3 118.4 111.6Q118.6 112.0 118.9 112.1Q119.3 112.3 119.8 112.3L119.8 112.3Q120.1 112.3 120.5 112.2Q120.8 112.2 121.0 112.1L121.0 112.1L121.8 115.7Q121.4 115.8 120.7 116.0Q120.1 116.2 119.1 116.2L119.1 116.2Q117.4 116.3 116.1 115.7Q114.8 115.2 114.0 114.1Q113.3 112.9 113.3 111.2L113.3 111.2ZM132.4 116.3L132.4 116.3Q129.7 116.3 127.7 115.2Q125.8 114.1 124.7 112.1Q123.7 110.1 123.7 107.3L123.7 107.3Q123.7 104.6 124.7 102.6Q125.8 100.5 127.7 99.4Q129.6 98.3 132.2 98.3L132.2 98.3Q133.9 98.3 135.4 98.8Q136.9 99.4 138.0 100.5Q139.1 101.6 139.7 103.2Q140.4 104.9 140.4 107.1L140.4 107.1L140.4 108.5L125.6 108.5L125.6 105.5L135.8 105.5Q135.8 104.4 135.4 103.6Q134.9 102.8 134.1 102.3Q133.3 101.9 132.2 101.9L132.2 101.9Q131.1 101.9 130.3 102.4Q129.4 102.9 129.0 103.7Q128.5 104.6 128.5 105.6L128.5 105.6L128.5 108.5Q128.5 109.8 129.0 110.7Q129.4 111.7 130.3 112.2Q131.2 112.7 132.4 112.7L132.4 112.7Q133.2 112.7 133.9 112.5Q134.6 112.2 135.1 111.8Q135.5 111.3 135.8 110.7L135.8 110.7L140.3 111.0Q139.9 112.6 138.9 113.8Q137.8 115.0 136.2 115.6Q134.5 116.3 132.4 116.3ZM148.4 105.9L148.4 105.9L148.4 116.0L143.5 116.0L143.5 98.5L148.1 98.5L148.1 101.6L148.3 101.6Q148.9 100.1 150.3 99.2Q151.6 98.3 153.6 98.3L153.6 98.3Q155.4 98.3 156.8 99.1Q158.1 99.9 158.9 101.3Q159.6 102.8 159.6 104.8L159.6 104.8L159.6 116.0L154.8 116.0L154.8 105.7Q154.8 104.1 154.0 103.2Q153.1 102.3 151.7 102.3L151.7 102.3Q150.7 102.3 149.9 102.7Q149.2 103.1 148.8 103.9Q148.4 104.7 148.4 105.9ZM169.9 116.2L169.9 116.2Q167.9 116.2 166.3 115.2Q164.6 114.2 163.7 112.2Q162.8 110.2 162.8 107.2L162.8 107.2Q162.8 104.2 163.7 102.3Q164.7 100.3 166.3 99.3Q167.9 98.3 169.8 98.3L169.8 98.3Q171.3 98.3 172.3 98.8Q173.3 99.3 173.9 100.0Q174.5 100.7 174.8 101.4L174.8 101.4L175.0 101.4L175.0 92.7L179.8 92.7L179.8 116.0L175.0 116.0L175.0 113.2L174.8 113.2Q174.5 113.9 173.8 114.6Q173.2 115.3 172.2 115.8Q171.3 116.2 169.9 116.2ZM171.4 112.4L171.4 112.4Q172.6 112.4 173.4 111.7Q174.2 111.1 174.6 109.9Q175.1 108.8 175.1 107.2L175.1 107.2Q175.1 105.7 174.6 104.5Q174.2 103.4 173.4 102.7Q172.6 102.1 171.4 102.1L171.4 102.1Q170.2 102.1 169.4 102.8Q168.6 103.4 168.1 104.6Q167.7 105.7 167.7 107.2L167.7 107.2Q167.7 108.7 168.1 109.9Q168.6 111.1 169.4 111.7Q170.2 112.4 171.4 112.4Z M200.8 116.0L200.8 116.0L192.6 116.0L192.6 92.7L200.9 92.7Q204.4 92.7 206.9 94.1Q209.5 95.5 210.8 98.1Q212.2 100.7 212.2 104.3L212.2 104.3Q212.2 107.9 210.8 110.5Q209.5 113.2 206.9 114.6Q204.4 116.0 200.8 116.0ZM197.5 96.9L197.5 111.7L200.6 111.7Q202.8 111.7 204.3 111.0Q205.8 110.2 206.5 108.5Q207.3 106.9 207.3 104.3L207.3 104.3Q207.3 101.7 206.5 100.1Q205.8 98.4 204.3 97.7Q202.8 96.9 200.6 96.9L200.6 96.9L197.5 96.9ZM223.7 116.3L223.7 116.3Q221 116.3 219.1 115.2Q217.1 114.1 216.1 112.1Q215.0 110.1 215.0 107.3L215.0 107.3Q215.0 104.6 216.1 102.6Q217.1 100.5 219.0 99.4Q220.9 98.3 223.5 98.3L223.5 98.3Q225.2 98.3 226.7 98.8Q228.2 99.4 229.3 100.5Q230.5 101.6 231.1 103.2Q231.7 104.9 231.7 107.1L231.7 107.1L231.7 108.5L217.0 108.5L217.0 105.5L227.1 105.5Q227.1 104.4 226.7 103.6Q226.2 102.8 225.4 102.3Q224.6 101.9 223.6 101.9L223.6 101.9Q222.5 101.9 221.6 102.4Q220.8 102.9 220.3 103.7Q219.8 104.6 219.8 105.6L219.8 105.6L219.8 108.5Q219.8 109.8 220.3 110.7Q220.8 111.7 221.7 112.2Q222.6 112.7 223.8 112.7L223.8 112.7Q224.6 112.7 225.3 112.5Q225.9 112.2 226.4 111.8Q226.9 111.3 227.1 110.7L227.1 110.7L231.6 111.0Q231.3 112.6 230.2 113.8Q229.2 115.0 227.5 115.6Q225.9 116.3 223.7 116.3ZM245.5 98.5L250.6 98.5L244.5 116.0L239.1 116.0L233.0 98.5L238.1 98.5L241.7 111.0L241.9 111.0L245.5 98.5ZM260.5 116.3L260.5 116.3Q257.8 116.3 255.9 115.2Q253.9 114.1 252.9 112.1Q251.8 110.1 251.8 107.3L251.8 107.3Q251.8 104.6 252.9 102.6Q253.9 100.5 255.8 99.4Q257.7 98.3 260.3 98.3L260.3 98.3Q262.0 98.3 263.5 98.8Q265.0 99.4 266.1 100.5Q267.3 101.6 267.9 103.2Q268.5 104.9 268.5 107.1L268.5 107.1L268.5 108.5L253.8 108.5L253.8 105.5L264.0 105.5Q264.0 104.4 263.5 103.6Q263.0 102.8 262.2 102.3Q261.4 101.9 260.4 101.9L260.4 101.9Q259.3 101.9 258.4 102.4Q257.6 102.9 257.1 103.7Q256.6 104.6 256.6 105.6L256.6 105.6L256.6 108.5Q256.6 109.8 257.1 110.7Q257.6 111.7 258.5 112.2Q259.4 112.7 260.6 112.7L260.6 112.7Q261.4 112.7 262.1 112.5Q262.7 112.2 263.2 111.8Q263.7 111.3 263.9 110.7L263.9 110.7L268.4 111.0Q268.1 112.6 267.0 113.8Q266.0 115.0 264.3 115.6Q262.7 116.3 260.5 116.3ZM271.7 92.7L276.5 92.7L276.5 116.0L271.7 116.0L271.7 92.7ZM288.3 116.3L288.3 116.3Q285.6 116.3 283.7 115.2Q281.8 114.0 280.7 112.0Q279.7 110.0 279.7 107.3L279.7 107.3Q279.7 104.6 280.7 102.6Q281.8 100.5 283.7 99.4Q285.6 98.3 288.3 98.3L288.3 98.3Q290.9 98.3 292.8 99.4Q294.8 100.5 295.8 102.6Q296.9 104.6 296.9 107.3L296.9 107.3Q296.9 110.0 295.8 112.0Q294.8 114.0 292.8 115.2Q290.9 116.3 288.3 116.3ZM288.3 112.5L288.3 112.5Q289.5 112.5 290.3 111.9Q291.1 111.2 291.5 110.0Q291.9 108.8 291.9 107.3L291.9 107.3Q291.9 105.7 291.5 104.5Q291.1 103.3 290.3 102.7Q289.5 102.0 288.3 102.0L288.3 102.0Q287.1 102.0 286.2 102.7Q285.4 103.3 285.0 104.5Q284.6 105.7 284.6 107.3L284.6 107.3Q284.6 108.8 285.0 110.0Q285.4 111.2 286.2 111.9Q287.1 112.5 288.3 112.5ZM304.9 122.5L300.0 122.5L300.0 98.5L304.8 98.5L304.8 101.4L305 101.4Q305.3 100.7 305.9 100.0Q306.5 99.3 307.5 98.8Q308.5 98.3 310.0 98.3L310.0 98.3Q311.9 98.3 313.5 99.3Q315.1 100.3 316.1 102.3Q317.0 104.2 317.0 107.2L317.0 107.2Q317.0 110.2 316.1 112.2Q315.2 114.2 313.6 115.2Q311.9 116.2 310.0 116.2L310.0 116.2Q308.5 116.2 307.6 115.8Q306.6 115.3 306.0 114.6Q305.3 113.9 305 113.2L305 113.2L304.9 113.2L304.9 122.5ZM304.8 107.2L304.8 107.2Q304.8 108.8 305.2 109.9Q305.6 111.1 306.4 111.7Q307.3 112.4 308.4 112.4L308.4 112.4Q309.6 112.4 310.4 111.7Q311.2 111.1 311.7 109.9Q312.1 108.7 312.1 107.2L312.1 107.2Q312.1 105.7 311.7 104.6Q311.3 103.4 310.4 102.8Q309.6 102.1 308.4 102.1L308.4 102.1Q307.2 102.1 306.4 102.7Q305.6 103.4 305.2 104.5Q304.8 105.7 304.8 107.2ZM328.2 116.3L328.2 116.3Q325.5 116.3 323.6 115.2Q321.6 114.1 320.6 112.1Q319.5 110.1 319.5 107.3L319.5 107.3Q319.5 104.6 320.6 102.6Q321.6 100.5 323.5 99.4Q325.4 98.3 328.0 98.3L328.0 98.3Q329.7 98.3 331.2 98.8Q332.7 99.4 333.8 100.5Q335.0 101.6 335.6 103.2Q336.2 104.9 336.2 107.1L336.2 107.1L336.2 108.5L321.5 108.5L321.5 105.5L331.7 105.5Q331.7 104.4 331.2 103.6Q330.8 102.8 329.9 102.3Q329.1 101.9 328.1 101.9L328.1 101.9Q327.0 101.9 326.1 102.4Q325.3 102.9 324.8 103.7Q324.3 104.6 324.3 105.6L324.3 105.6L324.3 108.5Q324.3 109.8 324.8 110.7Q325.3 111.7 326.2 112.2Q327.1 112.7 328.3 112.7L328.3 112.7Q329.1 112.7 329.8 112.5Q330.4 112.2 330.9 111.8Q331.4 111.3 331.6 110.7L331.6 110.7L336.1 111.0Q335.8 112.6 334.7 113.8Q333.7 115.0 332.0 115.6Q330.4 116.3 328.2 116.3ZM344.2 116.0L339.4 116.0L339.4 98.5L344.1 98.5L344.1 101.5L344.3 101.5Q344.7 99.9 345.9 99.1Q347.0 98.2 348.4 98.2L348.4 98.2Q348.8 98.2 349.2 98.3Q349.6 98.3 350.0 98.4L350.0 98.4L350.0 102.7Q349.6 102.6 349.0 102.5Q348.4 102.5 347.9 102.5L347.9 102.5Q346.9 102.5 346.0 102.9Q345.2 103.4 344.7 104.2Q344.2 105.0 344.2 106.1L344.2 106.1L344.2 116.0Z "/></svg>